<?xml version="1.0" encoding="UTF-8"?>
<svg width="108px" height="176px" viewBox="0 0 108 176" version="1.1" xmlns="http://www.w3.org/2000/svg" xmlns:xlink="http://www.w3.org/1999/xlink">
    <title>prickly-pear</title>
    <g id="Page-1" stroke="none" stroke-width="1" fill="none" fill-rule="evenodd">
        <g id="prickly-pear" transform="translate(1.308000, 0.782000)">
            <path d="M97.708,164.55 C97.708,170.027 78.164,174.467 54.055,174.467 C29.945,174.467 10.401,170.027 10.401,164.55 C10.401,159.073 29.945,154.633 54.055,154.633 C78.164,154.633 97.708,159.073 97.708,164.55" id="Fill-347" fill="#A5CBA9"></path>
            <path d="M73.252,99.361 C73.252,99.726 72.956,100.022 72.591,100.022 C72.226,100.022 71.93,99.726 71.93,99.361 C71.93,98.996 72.226,98.7 72.591,98.7 C72.956,98.7 73.252,98.996 73.252,99.361" id="Fill-348" fill="#58863E"></path>
            <path d="M84.657,95.229 C84.657,95.593 84.361,95.89 83.996,95.89 C83.631,95.89 83.335,95.593 83.335,95.229 C83.335,94.864 83.631,94.568 83.996,94.568 C84.361,94.568 84.657,94.864 84.657,95.229" id="Fill-349" fill="#58863E"></path>
            <path d="M71.991,93.604 C72.453,93.075 72.916,92.545 73.378,92.016" id="Stroke-350" stroke="#0D261A" stroke-width="0.746" stroke-linecap="round" stroke-linejoin="round"></path>
            <path d="M75.236,82.7 C75.236,83.065 74.94,83.361 74.574,83.361 C74.21,83.361 73.913,83.065 73.913,82.7 C73.913,82.335 74.21,82.039 74.574,82.039 C74.94,82.039 75.236,82.335 75.236,82.7" id="Fill-351" fill="#58863E"></path>
            <path d="M26.894,54.07 C25.642,51.217 24.769,48.108 25.08,45.009 C25.392,41.91 27.056,38.826 29.834,37.417 C32.295,36.168 35.297,36.376 37.869,37.376 C44.218,39.843 48.06,46.672 48.781,53.446 C49.379,59.055 49.513,69.301 41.765,69 C34.958,68.734 29.264,59.469 26.894,54.07" id="Fill-352" fill="#58863E"></path>
            <path d="M30.179,44.696 C31.056,45.232 31.933,45.768 32.81,46.305 M38.362,47.403 C38.709,46.606 39.055,45.81 39.402,45.014 M30.469,53.162 C31.246,54.056 32.025,54.952 32.802,55.847 M36.682,61.352 C37.303,60.562 37.924,59.771 38.545,58.981 M43.633,53.741 C44.157,54.45 44.681,55.159 45.204,55.869 M42.357,60.574 C42.869,61.119 43.382,61.663 43.895,62.208 M35.897,37.588 C36.171,36.71 36.445,35.832 36.721,34.954 M37.656,38.063 C37.92,37.335 38.184,36.608 38.448,35.88 M27.965,60.488 C28.508,60.11 29.05,59.732 29.592,59.354 M28.947,62.258 C29.542,61.861 30.137,61.463 30.731,61.066" id="Stroke-353" stroke="#0D261A" stroke-width="0.746" stroke-linecap="round" stroke-linejoin="round"></path>
            <path d="M63.102,34.549 C67.146,30.051 73.352,26.307 79.329,27.957 C84.53,29.391 87.799,34.67 88.044,39.813 C88.288,44.955 86.069,49.924 83.32,54.36 C78.955,61.407 64.599,74.985 55.851,65.288 C48.767,57.435 57.458,40.827 63.102,34.549" id="Fill-354" fill="#58863E"></path>
            <path d="M73.339,33.318 C73.486,34.375 73.631,35.43 73.778,36.486 M76.745,42.158 C77.863,41.993 79.001,41.96 80.127,42.058 M61.93,32.688 C62.371,33.427 62.814,34.168 63.255,34.907 M79.213,34.982 C80.005,34.252 80.763,33.486 81.485,32.688 M87.666,41.833 C88.392,41.916 89.117,41.999 89.843,42.082 M87.665,43.626 C88.459,43.626 89.252,43.626 90.046,43.626 M61.475,41.115 C62.401,41.244 63.326,41.373 64.253,41.502 M70.641,43.651 C70.044,44.443 69.447,45.235 68.851,46.027 M58.525,51.356 C58.81,52.192 58.99,53.063 59.06,53.943 M62.242,60.068 C62.722,59.252 63.343,58.521 64.07,57.916 M72.008,51.971 C72.588,51.489 73.167,51.007 73.746,50.526 M70.592,55.945 C71.251,56.412 71.909,56.878 72.568,57.345 M82.142,55.491 C82.648,55.916 83.153,56.339 83.659,56.763 M55.15,41.223 C56.058,41.718 56.966,42.212 57.874,42.708 M63.451,31.544 C63.961,32.027 64.471,32.51 64.981,32.993 M85.669,50.394 C86.258,50.701 86.809,51.08 87.304,51.52 M71.6,66.237 C71.732,66.7 71.864,67.163 71.996,67.626" id="Stroke-355" stroke="#0D261A" stroke-width="0.746" stroke-linecap="round" stroke-linejoin="round"></path>
            <path d="M90.263,19.939 C91.785,18.184 93.603,16.603 95.791,15.824 C97.98,15.044 100.59,15.18 102.427,16.603 C104.054,17.863 104.873,19.953 105.021,22.006 C105.384,27.074 102.008,31.843 97.673,34.493 C94.082,36.687 87.219,40.049 84.948,34.73 C82.954,30.058 87.38,23.261 90.263,19.939" id="Fill-356" fill="#19572F"></path>
            <path d="M98.905,26.37 C98.905,26.735 98.61,27.031 98.244,27.031 C97.879,27.031 97.583,26.735 97.583,26.37 C97.583,26.004 97.879,25.709 98.244,25.709 C98.61,25.709 98.905,26.004 98.905,26.37" id="Fill-357" fill="#58863E"></path>
            <path d="M102.806,22.469 C102.806,22.835 102.51,23.13 102.145,23.13 C101.779,23.13 101.484,22.835 101.484,22.469 C101.484,22.104 101.779,21.808 102.145,21.808 C102.51,21.808 102.806,22.104 102.806,22.469" id="Fill-358" fill="#58863E"></path>
            <path d="M91.831,33.444 C91.831,33.809 91.534,34.105 91.17,34.105 C90.805,34.105 90.509,33.809 90.509,33.444 C90.509,33.079 90.805,32.783 91.17,32.783 C91.534,32.783 91.831,33.079 91.831,33.444" id="Fill-359" fill="#58863E"></path>
            <path d="M98.641,19.627 C98.641,19.991 98.345,20.288 97.98,20.288 C97.614,20.288 97.319,19.991 97.319,19.627 C97.319,19.261 97.614,18.965 97.98,18.965 C98.345,18.965 98.641,19.261 98.641,19.627" id="Fill-360" fill="#58863E"></path>
            <path d="M90.509,27.758 C90.509,28.124 90.212,28.419 89.848,28.419 C89.483,28.419 89.187,28.124 89.187,27.758 C89.187,27.393 89.483,27.097 89.848,27.097 C90.212,27.097 90.509,27.393 90.509,27.758" id="Fill-361" fill="#58863E"></path>
            <path d="M92.426,24.386 C92.426,23.527 92.426,22.668 92.426,21.808 M94.807,30.148 C95.536,30.053 96.285,30.122 96.985,30.346 M102.509,17.803 C103.111,17.283 103.713,16.762 104.316,16.242 M103.56,19.265 C104.208,18.786 104.858,18.306 105.506,17.827 M101.945,28.752 C102.548,29.204 103.152,29.656 103.754,30.108 M87.054,20.427 C87.433,21.229 87.812,22.031 88.191,22.833" id="Stroke-362" stroke="#0D261A" stroke-width="0.746" stroke-linecap="round" stroke-linejoin="round"></path>
            <path d="M86.361,9.808 C85.916,8.297 85.677,6.681 86.032,5.146 C86.387,3.612 87.42,2.171 88.903,1.642 C90.219,1.174 91.711,1.47 92.938,2.137 C95.964,3.783 97.453,7.455 97.381,10.899 C97.32,13.752 96.731,18.9 92.863,18.252 C89.466,17.682 87.203,12.669 86.361,9.808" id="Fill-363" fill="#19572F"></path>
            <path d="M90.178,6.932 C90.178,7.297 89.882,7.593 89.517,7.593 C89.152,7.593 88.856,7.297 88.856,6.932 C88.856,6.567 89.152,6.271 89.517,6.271 C89.882,6.271 90.178,6.567 90.178,6.932" id="Fill-364" fill="#58863E"></path>
            <path d="M94.939,6.932 C94.939,7.297 94.642,7.593 94.278,7.593 C93.912,7.593 93.616,7.297 93.616,6.932 C93.616,6.567 93.912,6.271 94.278,6.271 C94.642,6.271 94.939,6.567 94.939,6.932" id="Fill-365" fill="#58863E"></path>
            <path d="M94.939,14.073 C94.939,14.438 94.642,14.734 94.278,14.734 C93.912,14.734 93.616,14.438 93.616,14.073 C93.616,13.708 93.912,13.412 94.278,13.412 C94.642,13.412 94.939,13.708 94.939,14.073" id="Fill-366" fill="#58863E"></path>
            <path d="M92.39,3.751 C92.606,2.829 92.821,1.907 93.037,0.986 M87.445,-2.27373675e-13 C87.828,0.866 88.21,1.731 88.593,2.597 M86.483,12.137 C87.472,11.988 88.461,11.838 89.45,11.689 M96.238,6.001 C96.844,5.553 97.352,4.975 97.716,4.318" id="Stroke-367" stroke="#0D261A" stroke-width="0.746" stroke-linecap="round" stroke-linejoin="round"></path>
            <path d="M61.385,15.847 C60.343,13.473 59.616,10.885 59.876,8.305 C60.135,5.726 61.521,3.16 63.832,1.986 C65.881,0.947 68.38,1.12 70.521,1.952 C75.805,4.006 79.002,9.691 79.603,15.328 C80.1,19.997 80.212,28.525 73.763,28.274 C68.098,28.053 63.359,20.341 61.385,15.847" id="Fill-368" fill="#19572F"></path>
            <path d="M76.757,14.006 C76.757,14.372 76.46,14.668 76.096,14.668 C75.731,14.668 75.435,14.372 75.435,14.006 C75.435,13.641 75.731,13.345 76.096,13.345 C76.46,13.345 76.757,13.641 76.757,14.006" id="Fill-369" fill="#58863E"></path>
            <path d="M71.402,14.006 C71.402,14.372 71.106,14.668 70.74,14.668 C70.375,14.668 70.079,14.372 70.079,14.006 C70.079,13.641 70.375,13.345 70.74,13.345 C71.106,13.345 71.402,13.641 71.402,14.006" id="Fill-370" fill="#58863E"></path>
            <path d="M76.757,21.212 C76.757,21.578 76.46,21.874 76.096,21.874 C75.731,21.874 75.435,21.578 75.435,21.212 C75.435,20.848 75.731,20.551 76.096,20.551 C76.46,20.551 76.757,20.848 76.757,21.212" id="Fill-371" fill="#58863E"></path>
            <path d="M70.145,7.395 C70.145,7.76 69.849,8.056 69.484,8.056 C69.118,8.056 68.822,7.76 68.822,7.395 C68.822,7.03 69.118,6.734 69.484,6.734 C69.849,6.734 70.145,7.03 70.145,7.395" id="Fill-372" fill="#58863E"></path>
            <path d="M66.442,3.725 C66.424,4.089 66.113,4.371 65.749,4.353 C65.385,4.335 65.104,4.025 65.121,3.66 C65.139,3.295 65.449,3.014 65.814,3.032 C66.179,3.05 66.46,3.36 66.442,3.725" id="Fill-373" fill="#58863E"></path>
            <path d="M70.145,21.742 C70.145,22.107 69.849,22.403 69.484,22.403 C69.118,22.403 68.822,22.107 68.822,21.742 C68.822,21.377 69.118,21.081 69.484,21.081 C69.849,21.081 70.145,21.377 70.145,21.742" id="Fill-374" fill="#58863E"></path>
            <path d="M65.583,14.006 C65.583,14.372 65.287,14.668 64.922,14.668 C64.557,14.668 64.261,14.372 64.261,14.006 C64.261,13.641 64.557,13.345 64.922,13.345 C65.287,13.345 65.583,13.641 65.583,14.006" id="Fill-375" fill="#58863E"></path>
            <path d="M75.16,9.111 C75.623,7.789 76.085,6.465 76.547,5.143 M60.507,3.148 C61.441,4.066 62.374,4.984 63.308,5.901 M58.953,5.274 C59.992,5.962 61.031,6.652 62.07,7.341 M59.709,13.7 C60.69,13.274 61.617,12.726 62.464,12.074 M71.008,17.8 C71.998,17.885 72.988,17.97 73.979,18.055 M66.046,10.502 C66.046,9.709 66.046,8.916 66.046,8.122 M62.103,21.645 C62.819,21.166 63.535,20.686 64.251,20.207 M71.617,2.574 C71.8,1.908 71.983,1.243 72.165,0.577" id="Stroke-376" stroke="#0D261A" stroke-width="0.746" stroke-linecap="round" stroke-linejoin="round"></path>
            <path d="M20.871,34.606 C20.147,33.542 19.556,32.344 19.447,31.061 C19.339,29.778 19.781,28.399 20.804,27.616 C21.709,26.921 22.945,26.779 24.066,26.99 C26.833,27.512 28.911,29.996 29.718,32.694 C30.386,34.927 31.217,39.082 28.045,39.545 C25.26,39.954 22.243,36.621 20.871,34.606" id="Fill-377" fill="#19572F"></path>
            <path d="M24.459,30.998 C24.459,31.363 24.163,31.659 23.798,31.659 C23.434,31.659 23.137,31.363 23.137,30.998 C23.137,30.632 23.434,30.336 23.798,30.336 C24.163,30.336 24.459,30.632 24.459,30.998" id="Fill-378" fill="#58863E"></path>
            <path d="M28.823,35.362 C28.823,35.727 28.528,36.023 28.162,36.023 C27.797,36.023 27.501,35.727 27.501,35.362 C27.501,34.997 27.797,34.701 28.162,34.701 C28.528,34.701 28.823,34.997 28.823,35.362" id="Fill-379" fill="#58863E"></path>
            <path d="M28.045,29.945 C28.405,28.814 28.931,27.736 29.597,26.753 M18.528,26.747 C19.31,27.463 20.093,28.18 20.876,28.897" id="Stroke-380" stroke="#0D261A" stroke-width="0.746" stroke-linecap="round" stroke-linejoin="round"></path>
            <path d="M57.986,107.803 C49.76,102.493 43.401,94.351 40.238,85.085 C38.247,79.25 37.722,71.434 42.144,66.263 C47.134,60.426 57.648,60.532 62.764,66.196 C67.159,71.064 66.581,78.769 65.452,84.777 C65.03,87.024 57.574,107.539 57.986,107.803" id="Fill-381" fill="#19572F"></path>
            <path d="M49.187,78.931 C49.187,79.296 48.891,79.592 48.526,79.592 C48.16,79.592 47.864,79.296 47.864,78.931 C47.864,78.566 48.16,78.27 48.526,78.27 C48.891,78.27 49.187,78.566 49.187,78.931" id="Fill-382" fill="#58863E"></path>
            <path d="M46.079,85.807 C46.079,86.172 45.783,86.468 45.418,86.468 C45.053,86.468 44.757,86.172 44.757,85.807 C44.757,85.442 45.053,85.146 45.418,85.146 C45.783,85.146 46.079,85.442 46.079,85.807" id="Fill-383" fill="#58863E"></path>
            <path d="M56.79,71.328 C56.79,71.693 56.494,71.989 56.129,71.989 C55.764,71.989 55.468,71.693 55.468,71.328 C55.468,70.962 55.764,70.667 56.129,70.667 C56.494,70.667 56.79,70.962 56.79,71.328" id="Fill-384" fill="#58863E"></path>
            <path d="M56.79,87.791 C56.79,88.156 56.494,88.452 56.129,88.452 C55.764,88.452 55.468,88.156 55.468,87.791 C55.468,87.425 55.764,87.129 56.129,87.129 C56.494,87.129 56.79,87.425 56.79,87.791" id="Fill-385" fill="#58863E"></path>
            <path d="M54.211,97.576 C54.211,97.941 53.915,98.237 53.55,98.237 C53.185,98.237 52.889,97.941 52.889,97.576 C52.889,97.21 53.185,96.915 53.55,96.915 C53.915,96.915 54.211,97.21 54.211,97.576" id="Fill-386" fill="#58863E"></path>
            <path d="M63.633,78.171 C63.633,78.536 63.337,78.833 62.972,78.833 C62.607,78.833 62.311,78.536 62.311,78.171 C62.311,77.806 62.607,77.509 62.972,77.509 C63.337,77.509 63.633,77.806 63.633,78.171" id="Fill-387" fill="#58863E"></path>
            <path d="M51.335,65.874 C51.335,66.239 51.039,66.535 50.674,66.535 C50.309,66.535 50.013,66.239 50.013,65.874 C50.013,65.508 50.309,65.212 50.674,65.212 C51.039,65.212 51.335,65.508 51.335,65.874" id="Fill-388" fill="#58863E"></path>
            <path d="M44.394,72.816 C44.394,73.181 44.097,73.477 43.733,73.477 C43.367,73.477 43.071,73.181 43.071,72.816 C43.071,72.451 43.367,72.155 43.733,72.155 C44.097,72.155 44.394,72.451 44.394,72.816" id="Fill-389" fill="#58863E"></path>
            <path d="M49.428,73.016 C49.992,72.33 50.556,71.643 51.12,70.957 M55.162,77.101 C55.937,77.532 56.71,77.963 57.485,78.394 M65.845,74.564 C66.514,74.17 67.265,73.918 68.035,73.827 M66.247,75.969 C66.977,75.78 67.707,75.589 68.437,75.4 M36.492,74.766 C37.418,74.766 38.344,74.766 39.27,74.766 M36.691,76.553 C37.487,76.595 38.29,76.516 39.064,76.322 M57.117,65.449 C57.843,65.979 58.569,66.51 59.295,67.041 M44,79.557 C44.612,80.134 45.224,80.711 45.836,81.289 M45.875,65.964 C46.428,66.414 46.981,66.863 47.532,67.311 M59.257,77.152 C59.371,78.014 59.486,78.876 59.601,79.738 M51.153,86.661 C51.514,85.686 51.972,84.749 52.52,83.866 M39.861,90.225 C40.588,89.961 41.316,89.699 42.043,89.435 M44.427,98.37 C45.153,97.774 45.88,97.177 46.607,96.582 M50.992,92.182 C51.641,92.536 52.289,92.89 52.938,93.245 M59.895,91.425 C60.236,90.571 60.576,89.715 60.918,88.86 M57.898,99.162 C57.941,98.127 58.221,97.102 58.713,96.19 M63.869,89.876 C64.462,89.792 65.054,89.708 65.647,89.625 M100.142,70.383 C100.54,69.988 100.938,69.592 101.336,69.197" id="Stroke-390" stroke="#0D261A" stroke-width="0.746" stroke-linecap="round" stroke-linejoin="round"></path>
            <path d="M68.936,107.944 C76.78,106.043 83.941,101.431 88.917,95.077 C92.051,91.075 94.581,85.134 92.543,79.909 C90.243,74.011 82.031,71.239 76.511,74.259 C71.768,76.855 70.126,83.01 69.374,87.993 C69.093,89.856 69.327,107.849 68.936,107.944" id="Fill-391" fill="#19572F"></path>
            <path d="M93.651,71.789 C94.502,70.824 95.516,69.955 96.733,69.533 C97.948,69.11 99.395,69.198 100.406,69.994 C101.303,70.699 101.747,71.861 101.82,73 C101.999,75.809 100.107,78.438 97.693,79.887 C95.694,81.087 91.875,82.92 90.64,79.962 C89.555,77.365 92.038,73.618 93.651,71.789" id="Fill-392" fill="#19572F"></path>
            <path d="M90.046,87.46 C90.046,87.826 89.75,88.122 89.385,88.122 C89.02,88.122 88.724,87.826 88.724,87.46 C88.724,87.095 89.02,86.799 89.385,86.799 C89.75,86.799 90.046,87.095 90.046,87.46" id="Fill-393" fill="#58863E"></path>
            <path d="M82.773,78.171 C82.773,78.536 82.477,78.833 82.111,78.833 C81.747,78.833 81.45,78.536 81.45,78.171 C81.45,77.806 81.747,77.509 82.111,77.509 C82.477,77.509 82.773,77.806 82.773,78.171" id="Fill-394" fill="#58863E"></path>
            <path d="M89.12,80.518 C89.12,80.883 88.824,81.179 88.459,81.179 C88.094,81.179 87.798,80.883 87.798,80.518 C87.798,80.153 88.094,79.857 88.459,79.857 C88.824,79.857 89.12,80.153 89.12,80.518" id="Fill-395" fill="#58863E"></path>
            <path d="M95.037,74.601 C95.037,74.966 94.741,75.262 94.376,75.262 C94.011,75.262 93.715,74.966 93.715,74.601 C93.715,74.236 94.011,73.94 94.376,73.94 C94.741,73.94 95.037,74.236 95.037,74.601" id="Fill-396" fill="#58863E"></path>
            <path d="M98.905,74.601 C98.905,74.966 98.61,75.262 98.244,75.262 C97.879,75.262 97.583,74.966 97.583,74.601 C97.583,74.236 97.879,73.94 98.244,73.94 C98.61,73.94 98.905,74.236 98.905,74.601" id="Fill-397" fill="#58863E"></path>
            <path d="M79.533,90.105 C79.533,90.47 79.237,90.766 78.872,90.766 C78.507,90.766 78.211,90.47 78.211,90.105 C78.211,89.74 78.507,89.444 78.872,89.444 C79.237,89.444 79.533,89.74 79.533,90.105" id="Fill-398" fill="#58863E"></path>
            <path d="M79.523,70.999 C79.631,71.73 79.739,72.46 79.848,73.191 M77.366,77.335 C77.82,78.107 78.422,78.79 79.131,79.335 M76.035,86.343 C76.604,85.788 77.173,85.232 77.741,84.676 M82.317,83.687 C82.788,84.341 83.261,84.996 83.733,85.651 M81.712,91.424 C82.266,90.784 82.819,90.144 83.371,89.503 M77.31,71.795 C77.392,72.521 77.475,73.247 77.557,73.972 M86.504,71.993 C86.423,72.586 86.341,73.179 86.259,73.772 M89.446,93.615 C89.975,94.012 90.503,94.41 91.03,94.808 M88.825,84.253 C89.418,83.699 90.102,83.24 90.841,82.902 M98.597,79.293 C99.078,79.597 99.48,80.025 99.753,80.524 M101.333,71.574 C101.731,71.178 102.128,70.782 102.526,70.386 M94.237,69.201 C94.508,69.809 94.893,70.366 95.367,70.834" id="Stroke-399" stroke="#0D261A" stroke-width="0.746" stroke-linecap="round" stroke-linejoin="round"></path>
            <path d="M3.73,77.384 C2.819,76.474 2.015,75.409 1.668,74.169 C1.321,72.928 1.498,71.491 2.355,70.53 C3.114,69.679 4.302,69.307 5.443,69.3049869 C8.258,69.299 10.765,71.351 12.063,73.85 C13.137,75.919 14.731,79.844 11.702,80.894 C9.042,81.816 5.455,79.106 3.73,77.384" id="Fill-400" fill="#19572F"></path>
            <path d="M4.89,72.65 C4.89,73.015 4.594,73.311 4.229,73.311 C3.863,73.311 3.568,73.015 3.568,72.65 C3.568,72.285 3.863,71.989 4.229,71.989 C4.594,71.989 4.89,72.285 4.89,72.65" id="Fill-401" fill="#58863E"></path>
            <path d="M9.65,72.65 C9.65,73.015 9.354,73.311 8.988,73.311 C8.623,73.311 8.327,73.015 8.327,72.65 C8.327,72.285 8.623,71.989 8.988,71.989 C9.354,71.989 9.65,72.285 9.65,72.65" id="Fill-402" fill="#58863E"></path>
            <path d="M9.65,77.146 C9.65,77.511 9.354,77.807 8.988,77.807 C8.623,77.807 8.327,77.511 8.327,77.146 C8.327,76.781 8.623,76.485 8.988,76.485 C9.354,76.485 9.65,76.781 9.65,77.146" id="Fill-403" fill="#58863E"></path>
            <path d="M6.2,67.817 C6.286,68.484 6.371,69.151 6.456,69.819 M-1.13686838e-13,70 C0.801,70.451 1.601,70.902 2.401,71.353 M3.163,78.529 C3.695,77.87 4.226,77.21 4.756,76.55 M4.366,80.126 C4.896,79.399 5.425,78.671 5.954,77.945" id="Stroke-404" stroke="#0D261A" stroke-width="0.746" stroke-linecap="round" stroke-linejoin="round"></path>
            <path d="M35.096,109.002 C27.252,107.1 20.091,102.489 15.114,96.134 C11.981,92.133 9.45,86.193 11.488,80.967 C13.788,75.069 22.001,72.297 27.521,75.318 C32.264,77.913 33.905,84.068 34.657,89.05 C34.94,90.915 34.704,108.907 35.096,109.002" id="Fill-405" fill="#19572F"></path>
            <path d="M21.153,78.733 C21.153,79.098 20.858,79.394 20.492,79.394 C20.127,79.394 19.831,79.098 19.831,78.733 C19.831,78.368 20.127,78.072 20.492,78.072 C20.858,78.072 21.153,78.368 21.153,78.733" id="Fill-406" fill="#58863E"></path>
            <path d="M24.526,87.46 C24.526,87.826 24.23,88.122 23.864,88.122 C23.499,88.122 23.203,87.826 23.203,87.46 C23.203,87.095 23.499,86.799 23.864,86.799 C24.23,86.799 24.526,87.095 24.526,87.46" id="Fill-407" fill="#58863E"></path>
            <path d="M32.195,90.039 C32.195,90.404 31.899,90.7 31.534,90.7 C31.169,90.7 30.873,90.404 30.873,90.039 C30.873,89.673 31.169,89.377 31.534,89.377 C31.899,89.377 32.195,89.673 32.195,90.039" id="Fill-408" fill="#58863E"></path>
            <path d="M31.203,99.163 C31.203,99.528 30.907,99.824 30.542,99.824 C30.177,99.824 29.881,99.528 29.881,99.163 C29.881,98.797 30.177,98.502 30.542,98.502 C30.907,98.502 31.203,98.797 31.203,99.163" id="Fill-409" fill="#58863E"></path>
            <path d="M25.418,98.336 C25.418,98.701 25.122,98.998 24.757,98.998 C24.392,98.998 24.096,98.701 24.096,98.336 C24.096,97.971 24.392,97.675 24.757,97.675 C25.122,97.675 25.418,97.971 25.418,98.336" id="Fill-410" fill="#58863E"></path>
            <path d="M17.253,92.419 C17.253,92.784 16.957,93.08 16.592,93.08 C16.227,93.08 15.931,92.784 15.931,92.419 C15.931,92.053 16.227,91.757 16.592,91.757 C16.957,91.757 17.253,92.053 17.253,92.419" id="Fill-411" fill="#58863E"></path>
            <path d="M27.699,78.931 C27.699,79.296 27.403,79.592 27.038,79.592 C26.673,79.592 26.377,79.296 26.377,78.931 C26.377,78.566 26.673,78.27 27.038,78.27 C27.403,78.27 27.699,78.566 27.699,78.931" id="Fill-412" fill="#58863E"></path>
            <path d="M15.336,83.427 C15.336,83.793 15.04,84.088 14.675,84.088 C14.31,84.088 14.014,83.793 14.014,83.427 C14.014,83.062 14.31,82.766 14.675,82.766 C15.04,82.766 15.336,83.062 15.336,83.427" id="Fill-413" fill="#58863E"></path>
            <path d="M26.962,74.763 C27.157,74.044 27.498,73.365 27.96,72.78 M25.392,82.66 C26.341,82.824 27.244,83.25 27.975,83.877 M18.24,86.665 C18.636,85.673 19.032,84.681 19.429,83.689 M21.223,92.393 L23.596,93.415 M28.56,75.958 C29.052,75.473 29.4,74.844 29.548,74.17 M8.526,88.452 C9.451,88.452 10.377,88.452 11.303,88.452 M10.27,92.36 C10.928,91.893 11.586,91.427 12.245,90.96 M29.752,93.05 C30.61,92.964 31.468,92.878 32.325,92.794 M33.333,83.948 C33.926,83.808 34.52,83.669 35.112,83.529 M32.742,81.741 C33.337,81.412 34.029,81.258 34.708,81.305 M15.059,99.35 C15.511,98.812 15.963,98.274 16.415,97.737" id="Stroke-414" stroke="#0D261A" stroke-width="0.746" stroke-linecap="round" stroke-linejoin="round"></path>
            <path d="M52.996,167.195 L52.996,167.195 C32.781,167.195 16.394,150.807 16.394,130.592 L16.394,102.254 L89.6,102.254 L89.6,130.592 C89.6,150.807 73.212,167.195 52.996,167.195" id="Fill-415" fill="#A65E41"></path>
            <path d="M16.658,114.303 L89.004,114.303 L16.658,114.303 Z M16.658,111.922 L89.004,111.922 L16.658,111.922 Z M16.658,130.592 L89.004,130.592 L16.658,130.592 Z M16.658,133.501 L89.004,133.501 L16.658,133.501 Z M36.071,122.237 C36.071,125.304 33.584,127.791 30.518,127.791 C27.45,127.791 24.964,125.304 24.964,122.237 C24.964,119.169 27.45,116.683 30.518,116.683 C33.584,116.683 36.071,119.169 36.071,122.237 Z M51.057,122.237 C51.057,125.304 48.57,127.791 45.503,127.791 C42.437,127.791 39.949,125.304 39.949,122.237 C39.949,119.169 42.437,116.683 45.503,116.683 C48.57,116.683 51.057,119.169 51.057,122.237 Z M66.043,122.237 C66.043,125.304 63.557,127.791 60.489,127.791 C57.422,127.791 54.936,125.304 54.936,122.237 C54.936,119.169 57.422,116.683 60.489,116.683 C63.557,116.683 66.043,119.169 66.043,122.237 Z M81.029,122.237 C81.029,125.304 78.543,127.791 75.476,127.791 C72.408,127.791 69.922,125.304 69.922,122.237 C69.922,119.169 72.408,116.683 75.476,116.683 C78.543,116.683 81.029,119.169 81.029,122.237 Z" id="Stroke-416" stroke="#763623" stroke-width="0.793" stroke-linecap="round" stroke-linejoin="round"></path>
        </g>
    </g>
</svg>