<?xml version="1.0" encoding="UTF-8"?>
<svg width="24px" height="24px" viewBox="0 0 24 24" version="1.1" xmlns="http://www.w3.org/2000/svg" xmlns:xlink="http://www.w3.org/1999/xlink">
    <title>watering_icon</title>
    <g id="Page-1" stroke="none" stroke-width="1" fill="none" fill-rule="evenodd">
        <g id="watering_icon">
            <circle id="Oval" fill="#FFFFFF" cx="12" cy="12" r="12"></circle>
            <g id="water_drop_black_24dp" transform="translate(4.000000, 3.000000)">
                <rect id="Rectangle" x="0" y="0" width="16" height="16"></rect>
                <path d="M7.5,2 C3.835625,4.9575 2,7.512 2,9.67 C2,12.907 4.6125,15 7.5,15 C10.3875,15 13,12.907 13,9.67 C13,7.512 11.164375,4.9575 7.5,2 Z M4.633125,9.8 C4.8875,9.8 5.09375,9.969 5.141875,10.203 C5.42375,11.646 6.709375,12.14 7.644375,12.0685 C7.94,12.0555 8.1875,12.2765 8.1875,12.556 C8.1875,12.816 7.9675,13.0305 7.6925,13.0435 C6.228125,13.128 4.51625,12.335 4.124375,10.3655 C4.069375,10.073 4.316875,9.8 4.633125,9.8 Z" id="Shape" fill="#9AA091" fill-rule="nonzero"></path>
            </g>
        </g>
    </g>
</svg>