<?xml version="1.0" encoding="UTF-8"?>
<svg width="32px" height="32px" viewBox="0 0 32 32" version="1.1" xmlns="http://www.w3.org/2000/svg" xmlns:xlink="http://www.w3.org/1999/xlink">
    <title>watering_icon_active</title>
    <g id="Page-1" stroke="none" stroke-width="1" fill="none" fill-rule="evenodd">
        <g id="watering_icon_active">
            <circle id="Oval" fill="#FFFFFF" cx="16" cy="16" r="16"></circle>
            <g id="water_drop_black_24dp" transform="translate(5.333333, 4.000000)">
                <rect id="Rectangle" x="0" y="0" width="21.3333333" height="21.3333333"></rect>
                <path d="M10,2.66666667 C5.11416667,6.61 2.66666667,10.016 2.66666667,12.8933333 C2.66666667,17.2093333 6.15,20 10,20 C13.85,20 17.3333333,17.2093333 17.3333333,12.8933333 C17.3333333,10.016 14.8858333,6.61 10,2.66666667 Z M6.1775,13.0666667 C6.51666667,13.0666667 6.79166667,13.292 6.85583333,13.604 C7.23166667,15.528 8.94583333,16.1866667 10.1925,16.0913333 C10.5866667,16.074 10.9166667,16.3686667 10.9166667,16.7413333 C10.9166667,17.088 10.6233333,17.374 10.2566667,17.3913333 C8.30416667,17.504 6.02166667,16.4466667 5.49916667,13.8206667 C5.42583333,13.4306667 5.75583333,13.0666667 6.1775,13.0666667 Z" id="Shape" fill="#688045" fill-rule="nonzero"></path>
            </g>
        </g>
    </g>
</svg>